<svg width="303" height="82" viewBox="0 0 303 82" fill="none" xmlns="http://www.w3.org/2000/svg">
<path fill-rule="evenodd" clip-rule="evenodd" d="M1 1L36.5556 15.359V66.641L1 81V1ZM4.41914 24.2479H13.9918V38.6069L22.8807 24.2479H32.4533L22.8807 39.2907L32.4533 55.0172H22.8807L13.9918 39.9744V55.7009H4.41914V24.2479Z" fill="#AC2929"/>
<path d="M36.5556 15.359H37.0556V15.0217L36.7428 14.8954L36.5556 15.359ZM1 1L1.18723 0.536379L0.5 0.258843V1H1ZM36.5556 66.641L36.7428 67.1047L37.0556 66.9783V66.641H36.5556ZM1 81H0.5V81.7412L1.18723 81.4636L1 81ZM13.9918 24.2479H14.4918V23.7479H13.9918V24.2479ZM4.41914 24.2479V23.7479H3.91914V24.2479H4.41914ZM13.9918 38.6069H13.4918V40.3645L14.4169 38.8701L13.9918 38.6069ZM22.8807 24.2479V23.7479H22.6021L22.4555 23.9847L22.8807 24.2479ZM32.4533 24.2479L32.8752 24.5164L33.3642 23.7479H32.4533V24.2479ZM22.8807 39.2907L22.4588 39.0222L22.2918 39.2848L22.4536 39.5506L22.8807 39.2907ZM32.4533 55.0172V55.5172H33.343L32.8804 54.7572L32.4533 55.0172ZM22.8807 55.0172L22.4502 55.2715L22.5954 55.5172H22.8807V55.0172ZM13.9918 39.9744L14.4223 39.7201L13.4918 38.1454V39.9744H13.9918ZM13.9918 55.7009V56.2009H14.4918V55.7009H13.9918ZM4.41914 55.7009H3.91914V56.2009H4.41914V55.7009ZM36.7428 14.8954L1.18723 0.536379L0.812768 1.46362L36.3683 15.8226L36.7428 14.8954ZM37.0556 66.641V15.359H36.0556V66.641H37.0556ZM1.18723 81.4636L36.7428 67.1047L36.3683 66.1774L0.812769 80.5364L1.18723 81.4636ZM0.5 1V81H1.5V1H0.5ZM13.9918 23.7479H4.41914V24.7479H13.9918V23.7479ZM14.4918 38.6069V24.2479H13.4918V38.6069H14.4918ZM22.4555 23.9847L13.5667 38.3437L14.4169 38.8701L23.3058 24.5111L22.4555 23.9847ZM32.4533 23.7479H22.8807V24.7479H32.4533V23.7479ZM23.3025 39.5591L32.8752 24.5164L32.0315 23.9795L22.4588 39.0222L23.3025 39.5591ZM32.8804 54.7572L23.3078 39.0307L22.4536 39.5506L32.0262 55.2771L32.8804 54.7572ZM22.8807 55.5172H32.4533V54.5172H22.8807V55.5172ZM13.5613 40.2288L22.4502 55.2715L23.3111 54.7628L14.4223 39.7201L13.5613 40.2288ZM14.4918 55.7009V39.9744H13.4918V55.7009H14.4918ZM4.41914 56.2009H13.9918V55.2009H4.41914V56.2009ZM3.91914 24.2479V55.7009H4.91914V24.2479H3.91914Z" fill="#AC2929"/>
<path d="M49.25 43L56.5455 28.8182H65.4091V55H56.5455V40.75L49.25 55H40.3864V28.8182H49.25V43ZM88.8807 38.2955V45.3182H75.7216V38.2955H88.8807ZM79.0625 28.8182V55H70.1989V28.8182H79.0625ZM94.4034 28.8182V55H85.608V28.8182H94.4034ZM111.5 55.4773C108.659 55.4773 106.227 54.9148 104.205 53.7898C102.182 52.6534 100.631 51.0739 99.5511 49.0511C98.4716 47.017 97.9318 44.6591 97.9318 41.9773C97.9318 39.2955 98.4716 36.9432 99.5511 34.9205C100.631 32.8864 102.182 31.3068 104.205 30.1818C106.227 29.0455 108.659 28.4773 111.5 28.4773C114.341 28.4773 116.773 29.0455 118.795 30.1818C120.818 31.3068 122.369 32.8864 123.449 34.9205C124.528 36.9432 125.068 39.2955 125.068 41.9773C125.068 44.6591 124.528 47.017 123.449 49.0511C122.369 51.0739 120.818 52.6534 118.795 53.7898C116.773 54.9148 114.341 55.4773 111.5 55.4773ZM111.568 48.5227C112.364 48.5227 113.051 48.2557 113.631 47.7216C114.21 47.1875 114.659 46.4261 114.977 45.4375C115.295 44.4489 115.455 43.2727 115.455 41.9091C115.455 40.5341 115.295 39.358 114.977 38.3807C114.659 37.392 114.21 36.6307 113.631 36.0966C113.051 35.5625 112.364 35.2955 111.568 35.2955C110.727 35.2955 110.006 35.5625 109.403 36.0966C108.801 36.6307 108.341 37.392 108.023 38.3807C107.705 39.358 107.545 40.5341 107.545 41.9091C107.545 43.2727 107.705 44.4489 108.023 45.4375C108.341 46.4261 108.801 47.1875 109.403 47.7216C110.006 48.2557 110.727 48.5227 111.568 48.5227ZM128.886 55V28.8182H140.341C143.852 28.8182 146.614 29.4148 148.625 30.608C150.648 31.8011 151.659 33.5909 151.659 35.9773C151.659 37.2727 151.091 38.4205 149.955 39.4205C148.83 40.4205 147.193 41.0909 145.045 41.4318C147.023 41.5227 148.625 41.8864 149.852 42.5227C151.091 43.1477 151.994 43.9318 152.562 44.875C153.142 45.8068 153.432 46.7727 153.432 47.7727C153.432 49.3636 153 50.6989 152.136 51.7784C151.273 52.8466 150 53.6534 148.318 54.1989C146.636 54.733 144.568 55 142.114 55H128.886ZM137.614 48.3864H142.114C142.875 48.3864 143.472 48.2045 143.903 47.8409C144.347 47.4773 144.568 46.9773 144.568 46.3409C144.568 45.6818 144.347 45.1648 143.903 44.7898C143.472 44.4148 142.875 44.2273 142.114 44.2273H137.614V48.3864ZM137.614 39.4545H140.614C141.102 39.4545 141.517 39.3807 141.858 39.233C142.199 39.0739 142.46 38.8523 142.642 38.5682C142.835 38.2841 142.932 37.9432 142.932 37.5455C142.932 36.9432 142.699 36.4773 142.233 36.1477C141.778 35.8068 141.148 35.6364 140.341 35.6364H137.614V39.4545ZM155.763 35.8409V28.8182H181.126V35.8409H172.808V55H163.945V35.8409H155.763ZM196.578 55.4773C193.737 55.4773 191.305 54.9148 189.283 53.7898C187.26 52.6534 185.709 51.0739 184.629 49.0511C183.55 47.017 183.01 44.6591 183.01 41.9773C183.01 39.2955 183.55 36.9432 184.629 34.9205C185.709 32.8864 187.26 31.3068 189.283 30.1818C191.305 29.0455 193.737 28.4773 196.578 28.4773C199.419 28.4773 201.851 29.0455 203.874 30.1818C205.896 31.3068 207.447 32.8864 208.527 34.9205C209.607 36.9432 210.146 39.2955 210.146 41.9773C210.146 44.6591 209.607 47.017 208.527 49.0511C207.447 51.0739 205.896 52.6534 203.874 53.7898C201.851 54.9148 199.419 55.4773 196.578 55.4773ZM196.646 48.5227C197.442 48.5227 198.129 48.2557 198.709 47.7216C199.288 47.1875 199.737 46.4261 200.055 45.4375C200.374 44.4489 200.533 43.2727 200.533 41.9091C200.533 40.5341 200.374 39.358 200.055 38.3807C199.737 37.392 199.288 36.6307 198.709 36.0966C198.129 35.5625 197.442 35.2955 196.646 35.2955C195.805 35.2955 195.084 35.5625 194.482 36.0966C193.879 36.6307 193.419 37.392 193.101 38.3807C192.783 39.358 192.624 40.5341 192.624 41.9091C192.624 43.2727 192.783 44.4489 193.101 45.4375C193.419 46.4261 193.879 47.1875 194.482 47.7216C195.084 48.2557 195.805 48.5227 196.646 48.5227ZM213.964 55V28.8182H238.374V55H229.51V35.8409H222.692V55H213.964ZM243.168 55V28.8182H252.577V38.1591H254.213L259.804 28.8182H270.577L262.19 42.0455L270.645 55H259.736L254.69 46.8864H252.577V55H243.168ZM279.27 64.8182C278.19 64.8182 277.162 64.733 276.185 64.5625C275.207 64.4034 274.349 64.1818 273.611 63.8977L275.656 57.2159C276.429 57.4886 277.134 57.6648 277.77 57.7443C278.418 57.8239 278.969 57.7784 279.423 57.608C279.889 57.4375 280.224 57.1136 280.429 56.6364L280.634 56.1591L271.429 28.8182H281.247L285.474 46.9545H285.747L290.043 28.8182H299.929L290.384 57.1818C289.906 58.625 289.213 59.9205 288.304 61.0682C287.406 62.2273 286.224 63.142 284.759 63.8125C283.293 64.483 281.463 64.8182 279.27 64.8182Z" fill="#AC2929"/>
</svg>
