<svg width="101" height="82" viewBox="0 0 101 82" fill="none" xmlns="http://www.w3.org/2000/svg">
<path fill-rule="evenodd" clip-rule="evenodd" d="M1 1L36.5556 15.359V66.641L1 81V1ZM4.41895 24.2479H13.9916V38.6069L22.8805 24.2479H32.4531L22.8805 39.2907L32.4531 55.0172H22.8805L13.9916 39.9744V55.7009H4.41895V24.2479Z" fill="#AC2929"/>
<path d="M36.5556 15.359H37.0556V15.0217L36.7428 14.8954L36.5556 15.359ZM1 1L1.18723 0.536379L0.5 0.258843V1H1ZM36.5556 66.641L36.7428 67.1047L37.0556 66.9783V66.641H36.5556ZM1 81H0.5V81.7412L1.18723 81.4636L1 81ZM13.9916 24.2479H14.4916V23.7479H13.9916V24.2479ZM4.41895 24.2479V23.7479H3.91895V24.2479H4.41895ZM13.9916 38.6069H13.4916V40.3645L14.4167 38.8701L13.9916 38.6069ZM22.8805 24.2479V23.7479H22.602L22.4553 23.9847L22.8805 24.2479ZM32.4531 24.2479L32.875 24.5164L33.364 23.7479H32.4531V24.2479ZM22.8805 39.2907L22.4587 39.0222L22.2916 39.2848L22.4534 39.5506L22.8805 39.2907ZM32.4531 55.0172V55.5172H33.3428L32.8802 54.7572L32.4531 55.0172ZM22.8805 55.0172L22.45 55.2715L22.5952 55.5172H22.8805V55.0172ZM13.9916 39.9744L14.4221 39.7201L13.4916 38.1454V39.9744H13.9916ZM13.9916 55.7009V56.2009H14.4916V55.7009H13.9916ZM4.41895 55.7009H3.91895V56.2009H4.41895V55.7009ZM36.7428 14.8954L1.18723 0.536379L0.812768 1.46362L36.3683 15.8226L36.7428 14.8954ZM37.0556 66.641V15.359H36.0556V66.641H37.0556ZM1.18723 81.4636L36.7428 67.1047L36.3683 66.1774L0.812769 80.5364L1.18723 81.4636ZM0.5 1V81H1.5V1H0.5ZM13.9916 23.7479H4.41895V24.7479H13.9916V23.7479ZM14.4916 38.6069V24.2479H13.4916V38.6069H14.4916ZM22.4553 23.9847L13.5665 38.3437L14.4167 38.8701L23.3056 24.5111L22.4553 23.9847ZM32.4531 23.7479H22.8805V24.7479H32.4531V23.7479ZM23.3023 39.5591L32.875 24.5164L32.0313 23.9795L22.4587 39.0222L23.3023 39.5591ZM32.8802 54.7572L23.3076 39.0307L22.4534 39.5506L32.026 55.2771L32.8802 54.7572ZM22.8805 55.5172H32.4531V54.5172H22.8805V55.5172ZM13.5611 40.2288L22.45 55.2715L23.3109 54.7628L14.4221 39.7201L13.5611 40.2288ZM14.4916 55.7009V39.9744H13.4916V55.7009H14.4916ZM4.41895 56.2009H13.9916V55.2009H4.41895V56.2009ZM3.91895 24.2479V55.7009H4.91895V24.2479H3.91895Z" fill="#AC2929"/>
<path d="M40.9688 55V24.4545H54.2131C56.5398 24.4545 58.4936 24.7678 60.0746 25.3942C61.6655 26.0206 62.8636 26.9055 63.669 28.049C64.4844 29.1925 64.892 30.5398 64.892 32.0909C64.892 33.2145 64.6435 34.2386 64.1463 35.1634C63.6591 36.0881 62.973 36.8636 62.0881 37.4901C61.2031 38.1065 60.169 38.5341 58.9858 38.7727V39.071C60.2983 39.1207 61.4915 39.4538 62.5653 40.0703C63.6392 40.6768 64.4943 41.517 65.1307 42.5909C65.767 43.6548 66.0852 44.9077 66.0852 46.3494C66.0852 48.0199 65.6477 49.5064 64.7727 50.8089C63.9077 52.1115 62.6747 53.1357 61.0739 53.8814C59.473 54.6271 57.5639 55 55.3466 55H40.9688ZM49.2614 48.3778H53.1392C54.5313 48.3778 55.5753 48.1193 56.2713 47.6023C56.9673 47.0753 57.3153 46.2997 57.3153 45.2756C57.3153 44.5597 57.1513 43.9531 56.8232 43.456C56.495 42.9588 56.0277 42.581 55.4212 42.3224C54.8246 42.0639 54.1037 41.9347 53.2585 41.9347H49.2614V48.3778ZM49.2614 36.804H52.6619C53.3878 36.804 54.0291 36.6896 54.5859 36.4609C55.1428 36.2322 55.5753 35.9041 55.8835 35.4766C56.2017 35.0391 56.3608 34.5071 56.3608 33.8807C56.3608 32.9361 56.0227 32.2152 55.3466 31.718C54.6705 31.2109 53.8153 30.9574 52.7812 30.9574H49.2614V36.804ZM68.1882 31.1364V24.4545H94.7365V31.1364H85.549V55H77.3757V31.1364H68.1882Z" fill="#AC2929"/>
</svg>
